<svg width="72" height="68" viewBox="0 0 72 68" fill="none" xmlns="http://www.w3.org/2000/svg">
<path d="M50.2274 43.6239L48.4074 45.4359C48.4074 45.4359 44.0754 49.7399 32.2554 37.9879C20.4354 26.2359 24.7674 21.9319 24.7674 21.9319L25.9114 20.7879C28.7394 17.9799 29.0074 13.4679 26.5394 10.1719L21.4994 3.43992C18.4434 -0.640082 12.5434 -1.18008 9.04343 2.29992L2.76342 8.53992C1.03142 10.2679 -0.128576 12.4999 0.011424 14.9799C0.371424 21.3279 3.24342 34.9799 19.2594 50.9079C36.2474 67.7959 52.1874 68.4679 58.7034 67.8599C60.7674 67.6679 62.5594 66.6199 64.0034 65.1799L69.6834 59.5319C73.5234 55.7199 72.4434 49.1799 67.5314 46.5119L59.8914 42.3559C56.6674 40.6079 52.7474 41.1199 50.2274 43.6239Z" fill="#FFD317"/>
</svg>
